<?xml version="1.0" encoding="UTF-8" standalone="no"?><!DOCTYPE svg PUBLIC "-//W3C//DTD SVG 1.1//EN" "http://www.w3.org/Graphics/SVG/1.1/DTD/svg11.dtd"><svg width="100%" height="100%" viewBox="0 0 139 99" version="1.1" xmlns="http://www.w3.org/2000/svg" xmlns:xlink="http://www.w3.org/1999/xlink" xml:space="preserve" xmlns:serif="http://www.serif.com/" style="fill-rule:evenodd;clip-rule:evenodd;stroke-linejoin:round;stroke-miterlimit:1.41421;"><path d="M132.41,90.899c0,2.286 0.405,3.887 1.365,3.887c0.915,0 1.29,-1.616 1.29,-3.887c0,-2.213 -0.375,-3.887 -1.305,-3.887c-0.93,0 -1.35,1.616 -1.35,3.887Zm3.81,-0.015c0,3.451 -1.125,4.862 -2.535,4.862c-1.514,0 -2.43,-1.746 -2.43,-4.832c0,-3.188 0.975,-4.863 2.565,-4.863c1.575,0 2.4,1.82 2.4,4.833Zm-11.113,4.746l0,-0.728l0.824,-1.092c1.156,-1.557 2.535,-3.333 2.535,-5.109c0,-1.048 -0.48,-1.689 -1.394,-1.689c-0.705,0 -1.155,0.364 -1.41,0.524l-0.285,-0.844c0.344,-0.276 1.019,-0.641 1.905,-0.641c1.619,0 2.324,1.165 2.324,2.592c0,1.776 -1.199,3.493 -2.399,5.094l-0.661,0.874l0,0.029l3.255,0l0,0.99l-4.694,0Zm-5.445,-4.731c0,2.286 0.405,3.887 1.365,3.887c0.915,0 1.29,-1.616 1.29,-3.887c0,-2.213 -0.375,-3.887 -1.305,-3.887c-0.93,0 -1.35,1.616 -1.35,3.887Zm3.81,-0.015c0,3.451 -1.125,4.862 -2.535,4.862c-1.515,0 -2.43,-1.746 -2.43,-4.832c0,-3.188 0.975,-4.863 2.565,-4.863c1.575,0 2.4,1.82 2.4,4.833Zm-11.414,4.746l0,-0.728l0.825,-1.092c1.156,-1.557 2.536,-3.333 2.536,-5.109c0,-1.048 -0.48,-1.689 -1.395,-1.689c-0.705,0 -1.155,0.364 -1.41,0.524l-0.285,-0.844c0.344,-0.276 1.019,-0.641 1.905,-0.641c1.619,0 2.324,1.165 2.324,2.592c0,1.776 -1.199,3.493 -2.399,5.094l-0.66,0.874l0,0.029l3.255,0l0,0.99l-4.696,0Zm-2.278,-5.192l0,0.815l-6.6,0l0,-0.815l6.6,0Zm-12.164,1.669l0,-2.678c0,-0.655 0.045,-1.237 0.09,-1.863l-0.06,0c-0.33,0.756 -0.54,1.208 -0.825,1.79l-1.35,2.722l0,0.029l2.145,0Zm0,3.523l0,-2.605l-3.24,0l0,-0.758l3.165,-6.099l1.125,0l0,5.939l1.065,0l0,0.918l-1.065,0l0,2.605l-1.05,0Zm-7.214,-8.327l-0.03,0l-1.62,0.903l-0.225,-0.873l2.055,-1.165l0.96,0l0,9.462l-1.14,0l0,-8.327Zm-8.084,3.596c0,2.286 0.405,3.887 1.365,3.887c0.915,0 1.29,-1.616 1.29,-3.887c0,-2.213 -0.375,-3.887 -1.304,-3.887c-0.931,0 -1.351,1.616 -1.351,3.887Zm3.811,-0.015c0,3.451 -1.125,4.862 -2.536,4.862c-1.514,0 -2.429,-1.746 -2.429,-4.832c0,-3.188 0.974,-4.863 2.564,-4.863c1.575,0 2.401,1.82 2.401,4.833Zm-11.415,4.746l0,-0.728l0.824,-1.092c1.155,-1.557 2.535,-3.333 2.535,-5.109c0,-1.048 -0.48,-1.689 -1.394,-1.689c-0.705,0 -1.155,0.364 -1.41,0.524l-0.285,-0.844c0.344,-0.276 1.019,-0.641 1.905,-0.641c1.619,0 2.324,1.165 2.324,2.592c0,1.776 -1.199,3.493 -2.399,5.094l-0.661,0.874l0,0.029l3.255,0l0,0.99l-4.694,0Zm-9.647,0.582l3.13,-10.51l0.845,0l-3.145,10.51l-0.83,0Zm-7.289,-4.425l-0.509,-2.489c-0.146,-0.699 -0.277,-1.514 -0.393,-2.242l-0.058,0c-0.117,0.742 -0.262,1.587 -0.394,2.242l-0.509,2.489l1.863,0Zm-2.023,0.903l-0.655,2.94l-1.077,0l2.242,-9.812l1.237,0l2.183,9.812l-1.106,0l-0.655,-2.94l-2.169,0Zm-8.576,2.94l-2.242,-9.812l1.194,0l0.961,4.601c0.232,1.106 0.523,2.518 0.698,3.77l0.044,0c0.146,-1.267 0.422,-2.635 0.655,-3.799l0.932,-4.572l1.193,0l-2.285,9.812l-1.15,0Zm-7.878,-4.615c0,-0.174 -0.015,-0.364 -0.059,-0.509c-0.131,-0.48 -0.378,-1.077 -1.018,-1.077c-0.816,0 -1.252,1.092 -1.252,2.649c0,1.805 0.567,2.62 1.252,2.62c0.334,0 0.771,-0.16 1.004,-1.004c0.058,-0.218 0.073,-0.437 0.073,-0.641l0,-2.038Zm1.106,3.713c0,1.848 -0.233,2.547 -0.699,3.056c-0.422,0.481 -1.092,0.757 -1.878,0.757c-0.596,0 -1.179,-0.145 -1.543,-0.349l0.262,-0.874c0.277,0.146 0.743,0.306 1.311,0.306c0.887,0 1.441,-0.553 1.441,-2.154l0,-0.714l-0.029,0c-0.248,0.554 -0.757,0.859 -1.354,0.859c-1.252,0 -2.067,-1.412 -2.067,-3.479c0,-2.591 1.178,-3.668 2.213,-3.668c0.756,0 1.106,0.495 1.309,0.917l0.029,0l0.059,-0.8l1.004,0c-0.015,0.494 -0.058,1.12 -0.058,2.197l0,3.946Zm-7.265,-3.348c0.028,-1.413 -0.51,-2.039 -1.049,-2.039c-0.728,0 -1.106,1.078 -1.15,2.039l2.199,0Zm-2.213,0.829c0.014,2.154 0.858,2.62 1.674,2.62c0.48,0 0.887,-0.116 1.165,-0.276l0.174,0.829c-0.393,0.219 -0.99,0.335 -1.543,0.335c-1.689,0 -2.562,-1.382 -2.562,-3.537c0,-2.285 0.961,-3.712 2.373,-3.712c1.441,0 2.009,1.514 2.009,3.115c0,0.262 0,0.451 -0.015,0.626l-3.275,0Zm-4.936,-1.805c0,-0.597 -0.044,-1.295 -0.058,-1.819l1.005,0l0.058,1.106l0.028,0c0.234,-0.67 0.831,-1.223 1.486,-1.223c0.087,0 0.16,0.015 0.232,0.015l0,1.149c-0.072,-0.014 -0.145,-0.014 -0.232,-0.014c-0.714,0 -1.237,0.655 -1.354,1.47c-0.029,0.189 -0.044,0.408 -0.044,0.641l0,3.901l-1.121,0l0,-5.226Zm-4.339,0c0,-0.597 -0.044,-1.295 -0.058,-1.819l1.005,0l0.058,1.106l0.029,0c0.233,-0.67 0.83,-1.223 1.485,-1.223c0.087,0 0.16,0.015 0.232,0.015l0,1.149c-0.072,-0.014 -0.145,-0.014 -0.232,-0.014c-0.714,0 -1.237,0.655 -1.354,1.47c-0.029,0.189 -0.043,0.408 -0.043,0.641l0,3.901l-1.122,0l0,-5.226Zm-3,0.976c0.029,-1.413 -0.509,-2.039 -1.048,-2.039c-0.728,0 -1.107,1.078 -1.15,2.039l2.198,0Zm-2.212,0.829c0.014,2.154 0.858,2.62 1.673,2.62c0.481,0 0.888,-0.116 1.165,-0.276l0.174,0.829c-0.392,0.219 -0.989,0.335 -1.543,0.335c-1.688,0 -2.561,-1.382 -2.561,-3.537c0,-2.285 0.961,-3.712 2.373,-3.712c1.44,0 2.009,1.514 2.009,3.115c0,0.262 0,0.451 -0.015,0.626l-3.275,0Zm-3.744,-5.269l0,1.645l1.354,0l0,0.858l-1.354,0l0,4.178c0,0.917 0.335,1.165 0.743,1.165c0.174,0 0.32,-0.015 0.451,-0.044l0.044,0.859c-0.204,0.072 -0.466,0.116 -0.829,0.116c-0.438,0 -0.831,-0.116 -1.107,-0.422c-0.277,-0.32 -0.423,-0.8 -0.423,-1.776l0,-4.076l-0.858,0l0,-0.858l0.858,0l0,-1.194l1.121,-0.451Zm-7.905,3.464c0,-0.83 -0.044,-1.252 -0.058,-1.819l0.975,0l0.059,0.844l0.028,0c0.306,-0.568 0.874,-0.961 1.616,-0.961c0.976,0 1.703,0.728 1.703,2.431l0,4.731l-1.121,0l0,-4.542c0,-0.83 -0.16,-1.674 -0.974,-1.674c-0.466,0 -0.918,0.393 -1.064,1.15c-0.028,0.175 -0.043,0.393 -0.043,0.626l0,4.44l-1.121,0l0,-5.226Zm-2.418,-4.586l0,9.812l-1.121,0l0,-9.812l1.121,0Zm134.966,-7.544c-0.408,0 -0.728,-0.335 -0.728,-0.845c0,-0.494 0.335,-0.859 0.743,-0.859c0.451,0 0.742,0.35 0.742,0.859c0,0.51 -0.276,0.845 -0.742,0.845l-0.015,0Zm-3.859,-5.343c0,-0.596 -0.044,-1.295 -0.059,-1.819l1.005,0l0.059,1.106l0.028,0c0.234,-0.67 0.83,-1.223 1.486,-1.223c0.086,0 0.16,0.015 0.232,0.015l0,1.15c-0.072,-0.015 -0.146,-0.015 -0.232,-0.015c-0.714,0 -1.238,0.655 -1.354,1.471c-0.029,0.189 -0.044,0.407 -0.044,0.64l0,3.901l-1.121,0l0,-5.226Zm-3.029,1.587c-0.582,0 -1.936,0.102 -1.936,1.631c0,0.917 0.466,1.251 0.859,1.251c0.495,0 0.917,-0.364 1.047,-1.063c0.03,-0.13 0.03,-0.276 0.03,-0.392l0,-1.427Zm1.106,2.038c0,0.539 0,1.15 0.072,1.601l-1.018,0l-0.072,-0.742l-0.044,0c-0.306,0.539 -0.801,0.859 -1.398,0.859c-0.946,0 -1.674,-0.801 -1.674,-2.009c0,-1.761 1.412,-2.548 2.998,-2.562l0,-0.219c0,-0.946 -0.232,-1.601 -1.121,-1.601c-0.436,0 -0.829,0.146 -1.164,0.364l-0.247,-0.786c0.291,-0.218 0.946,-0.466 1.645,-0.466c1.412,0 2.023,0.932 2.023,2.519l0,3.042Zm-8.794,-0.888c0,0.16 0,0.32 0.044,0.437c0.262,1.048 0.742,1.237 1.048,1.237c0.902,0 1.223,-1.223 1.223,-2.722c0,-1.412 -0.335,-2.664 -1.238,-2.664c-0.524,0 -0.961,0.655 -1.047,1.252c-0.03,0.16 -0.03,0.335 -0.03,0.495l0,1.965Zm-1.121,-7.584l1.121,0l0,3.857l0.03,0c0.363,-0.698 0.887,-0.946 1.484,-0.946c1.092,0 1.922,1.267 1.922,3.567c0,2.547 -1.049,3.712 -2.141,3.712c-0.742,0 -1.12,-0.437 -1.397,-1.034l-0.043,0l-0.074,0.917l-0.96,0c0.014,-0.407 0.058,-1.208 0.058,-1.688l0,-8.385Zm-6.246,0l1.121,0l0,3.785l0.029,0c0.146,-0.248 0.364,-0.466 0.582,-0.612c0.262,-0.16 0.539,-0.262 0.947,-0.262c0.887,0 1.644,0.714 1.644,2.489l0,4.673l-1.121,0l0,-4.541c0,-0.859 -0.188,-1.675 -0.946,-1.675c-0.524,0 -0.917,0.379 -1.092,1.122c-0.028,0.16 -0.043,0.363 -0.043,0.538l0,4.556l-1.121,0l0,-10.073Zm-1.326,9.899c-0.248,0.145 -0.67,0.262 -1.165,0.262c-1.543,0 -2.577,-1.238 -2.577,-3.567c0,-2.023 1.019,-3.668 2.781,-3.668c0.379,0 0.786,0.102 0.99,0.218l-0.219,0.917c-0.145,-0.073 -0.436,-0.189 -0.8,-0.189c-1.121,0 -1.63,1.34 -1.63,2.722c0,1.645 0.626,2.635 1.659,2.635c0.306,0 0.553,-0.073 0.815,-0.189l0.146,0.859Zm-6.48,-3.465c-0.582,0 -1.935,0.102 -1.935,1.631c0,0.917 0.466,1.251 0.858,1.251c0.495,0 0.917,-0.364 1.048,-1.063c0.029,-0.13 0.029,-0.276 0.029,-0.392l0,-1.427Zm1.107,2.038c0,0.539 0,1.15 0.072,1.601l-1.018,0l-0.074,-0.742l-0.043,0c-0.305,0.539 -0.8,0.859 -1.397,0.859c-0.946,0 -1.674,-0.801 -1.674,-2.009c0,-1.761 1.411,-2.548 2.998,-2.562l0,-0.219c0,-0.946 -0.232,-1.601 -1.121,-1.601c-0.437,0 -0.829,0.146 -1.164,0.364l-0.247,-0.786c0.291,-0.218 0.945,-0.466 1.644,-0.466c1.412,0 2.024,0.932 2.024,2.519l0,3.042Zm-10.775,1.601l0,-9.811l1.064,0l1.805,4.6c0.407,1.048 0.917,2.358 1.252,3.421l0.029,0c-0.088,-1.543 -0.131,-2.81 -0.131,-4.513l0,-3.508l1.004,0l0,9.811l-1.063,0l-1.863,-4.716c-0.393,-0.99 -0.815,-2.111 -1.165,-3.333l-0.028,0c0.087,1.31 0.116,2.562 0.116,4.658l0,3.391l-1.02,0Zm-7.862,-3.523c0,1.165 0.203,2.752 1.223,2.752c0.961,0 1.149,-1.66 1.149,-2.752c0,-1.077 -0.188,-2.736 -1.179,-2.736c-1.004,0 -1.193,1.659 -1.193,2.736Zm3.508,0c0,2.723 -1.267,3.64 -2.344,3.64c-1.266,0 -2.285,-1.15 -2.285,-3.625c0,-2.577 1.15,-3.654 2.358,-3.654c1.252,0 2.271,1.179 2.271,3.639Zm-7.469,-6.55l1.121,0l0,10.073l-1.121,0l0,-10.073Zm-3.145,0l1.121,0l0,10.073l-1.121,0l0,-10.073Zm-3.045,6.434c-0.582,0 -1.935,0.102 -1.935,1.631c0,0.917 0.466,1.251 0.858,1.251c0.495,0 0.917,-0.364 1.048,-1.063c0.029,-0.13 0.029,-0.276 0.029,-0.392l0,-1.427Zm1.107,2.038c0,0.539 0,1.15 0.072,1.601l-1.019,0l-0.072,-0.742l-0.044,0c-0.305,0.539 -0.801,0.859 -1.397,0.859c-0.947,0 -1.674,-0.801 -1.674,-2.009c0,-1.761 1.411,-2.548 2.998,-2.562l0,-0.219c0,-0.946 -0.232,-1.601 -1.121,-1.601c-0.437,0 -0.829,0.146 -1.164,0.364l-0.247,-0.786c0.291,-0.218 0.945,-0.466 1.644,-0.466c1.412,0 2.024,0.932 2.024,2.519l0,3.042Zm-9.624,-8.21l0,4.207l2.751,0l0,-4.207l1.121,0l0,9.811l-1.121,0l0,-4.585l-2.751,0l0,4.585l-1.121,0l0,-9.811l1.121,0Zm-6.683,9.928c-0.408,0 -0.728,-0.335 -0.728,-0.845c0,-0.494 0.335,-0.859 0.743,-0.859c0.451,0 0.742,0.35 0.742,0.859c0,0.51 -0.276,0.845 -0.742,0.845l-0.015,0Zm-3.16,-4.367c0.028,-1.412 -0.51,-2.038 -1.049,-2.038c-0.727,0 -1.106,1.077 -1.149,2.038l2.198,0Zm-2.213,0.829c0.015,2.155 0.858,2.621 1.674,2.621c0.48,0 0.888,-0.117 1.165,-0.277l0.174,0.83c-0.393,0.218 -0.99,0.335 -1.543,0.335c-1.689,0 -2.562,-1.383 -2.562,-3.538c0,-2.285 0.961,-3.712 2.373,-3.712c1.441,0 2.009,1.514 2.009,3.115c0,0.263 0,0.452 -0.015,0.626l-3.275,0Zm-3.83,-0.946c0,-0.145 0,-0.306 -0.015,-0.466c-0.073,-0.727 -0.509,-1.368 -1.048,-1.368c-0.931,0 -1.252,1.296 -1.252,2.708c0,1.485 0.378,2.678 1.194,2.678c0.349,0 0.83,-0.189 1.077,-1.208c0.029,-0.131 0.044,-0.291 0.044,-0.466l0,-1.878Zm1.106,-5.706l0,8.385c0,0.48 0.043,1.281 0.058,1.688l-0.961,0l-0.072,-0.888l-0.044,0c-0.233,0.51 -0.728,1.005 -1.47,1.005c-1.194,0 -2.053,-1.296 -2.053,-3.61c0,-2.504 1.034,-3.669 2.125,-3.669c0.51,0 1.005,0.248 1.282,0.844l0.029,0l0,-3.755l1.106,0Zm-6.886,5.823c0.028,-1.412 -0.51,-2.038 -1.049,-2.038c-0.728,0 -1.106,1.077 -1.15,2.038l2.199,0Zm-2.213,0.829c0.014,2.155 0.858,2.621 1.674,2.621c0.48,0 0.887,-0.117 1.165,-0.277l0.173,0.83c-0.392,0.218 -0.989,0.335 -1.542,0.335c-1.689,0 -2.562,-1.383 -2.562,-3.538c0,-2.285 0.961,-3.712 2.373,-3.712c1.44,0 2.009,1.514 2.009,3.115c0,0.263 0,0.452 -0.015,0.626l-3.275,0Zm-5.548,2.257c0.248,0.16 0.684,0.364 1.136,0.364c0.64,0 1.033,-0.394 1.033,-1.02c0,-0.538 -0.19,-0.902 -0.902,-1.382c-0.917,-0.597 -1.413,-1.194 -1.413,-2.009c0,-1.135 0.845,-1.951 1.937,-1.951c0.553,0 0.975,0.19 1.265,0.364l-0.305,0.845c-0.262,-0.175 -0.567,-0.306 -0.932,-0.306c-0.611,0 -0.917,0.437 -0.917,0.888c0,0.48 0.175,0.742 0.874,1.222c0.815,0.525 1.455,1.165 1.455,2.141c0,1.412 -0.96,2.096 -2.11,2.096c-0.524,0 -1.092,-0.16 -1.397,-0.408l0.276,-0.844Zm-1.748,-0.757c0,0.786 0.043,1.397 0.057,1.921l-0.974,0l-0.073,-0.742l-0.03,0c-0.217,0.349 -0.756,0.859 -1.513,0.859c-1.238,0 -1.718,-0.961 -1.718,-2.708l0,-4.454l1.121,0l0,4.294c0,1.106 0.175,1.922 0.946,1.922c0.656,0 0.947,-0.612 1.004,-0.932c0.044,-0.189 0.059,-0.408 0.059,-0.641l0,-4.643l1.121,0l0,5.124Zm-9.348,-1.602c0,1.165 0.203,2.752 1.223,2.752c0.961,0 1.149,-1.66 1.149,-2.752c0,-1.077 -0.188,-2.736 -1.178,-2.736c-1.005,0 -1.194,1.659 -1.194,2.736Zm3.508,0c0,2.723 -1.267,3.64 -2.344,3.64c-1.266,0 -2.285,-1.15 -2.285,-3.625c0,-2.577 1.15,-3.654 2.359,-3.654c1.251,0 2.27,1.179 2.27,3.639Zm-9.084,2.359c0.248,0.16 0.685,0.364 1.136,0.364c0.64,0 1.033,-0.394 1.033,-1.02c0,-0.538 -0.189,-0.902 -0.902,-1.382c-0.917,-0.597 -1.412,-1.194 -1.412,-2.009c0,-1.135 0.844,-1.951 1.936,-1.951c0.553,0 0.975,0.19 1.266,0.364l-0.306,0.845c-0.262,-0.175 -0.567,-0.306 -0.932,-0.306c-0.611,0 -0.917,0.437 -0.917,0.888c0,0.48 0.175,0.742 0.874,1.222c0.815,0.525 1.455,1.165 1.455,2.141c0,1.412 -0.959,2.096 -2.11,2.096c-0.524,0 -1.092,-0.16 -1.397,-0.408l0.276,-0.844Zm-4.253,-7.701c0,0.437 -0.262,0.728 -0.683,0.728c-0.365,0 -0.656,-0.291 -0.641,-0.728c-0.015,-0.436 0.276,-0.727 0.67,-0.727c0.392,0 0.654,0.291 0.654,0.727Zm-2.503,10.889c0.321,-0.088 0.713,-0.204 0.946,-0.553c0.248,-0.379 0.334,-0.903 0.334,-2.242l0,-6.274l1.122,0l0,6.594c0,1.485 -0.218,2.169 -0.713,2.693c-0.423,0.436 -1.107,0.655 -1.543,0.669l-0.146,-0.887Zm-3.931,-5.547c0,1.165 0.203,2.752 1.222,2.752c0.961,0 1.15,-1.66 1.15,-2.752c0,-1.077 -0.189,-2.736 -1.179,-2.736c-1.005,0 -1.193,1.659 -1.193,2.736Zm3.507,0c0,2.723 -1.266,3.64 -2.343,3.64c-1.267,0 -2.286,-1.15 -2.286,-3.625c0,-2.577 1.15,-3.654 2.359,-3.654c1.252,0 2.27,1.179 2.27,3.639Zm-10.585,-6.55l1.121,0l0,3.785l0.03,0c0.145,-0.248 0.363,-0.466 0.582,-0.612c0.262,-0.16 0.538,-0.262 0.946,-0.262c0.888,0 1.645,0.714 1.645,2.489l0,4.673l-1.121,0l0,-4.541c0,-0.859 -0.189,-1.675 -0.947,-1.675c-0.523,0 -0.917,0.379 -1.092,1.122c-0.028,0.16 -0.043,0.363 -0.043,0.538l0,4.556l-1.121,0l0,-10.073Zm-3.364,6.23l-0.51,-2.489c-0.145,-0.698 -0.276,-1.514 -0.392,-2.242l-0.059,0c-0.116,0.743 -0.262,1.587 -0.393,2.242l-0.509,2.489l1.863,0Zm-2.023,0.903l-0.656,2.94l-1.077,0l2.241,-9.811l1.239,0l2.182,9.811l-1.105,0l-0.655,-2.94l-2.169,0Z" style="fill-rule:nonzero;"/><path d="M74.475,9.719l-9.718,-9.719l-9.719,9.719l-9.719,9.719l-9.719,9.719l9.719,9.719l9.719,-9.719l9.719,-9.719l9.718,9.719l9.72,-9.719l-9.72,-9.719Zm-58.657,30.073l0,-25.303l4.505,0l3.904,9.911c0.752,1.952 1.991,5.18 2.704,7.396l0.075,0c-0.15,-2.666 -0.489,-7.057 -0.489,-11.714l0,-5.593l4.318,0l0,25.303l-4.506,0l-3.865,-9.611c-0.827,-2.139 -1.991,-5.331 -2.553,-7.621l-0.075,0c0.112,2.553 0.3,6.458 0.3,11.564l0,5.668l-4.318,0Zm-15.104,-5.031c1.013,0.564 2.739,0.976 4.166,0.976c2.328,0 3.454,-1.201 3.454,-2.852c0,-1.841 -1.126,-2.741 -3.266,-4.13c-3.454,-2.102 -4.768,-4.768 -4.768,-7.058c0,-4.055 2.704,-7.434 7.996,-7.434c1.653,0 3.23,0.452 3.98,0.901l-0.788,4.243c-0.714,-0.451 -1.803,-0.863 -3.229,-0.863c-2.102,0 -3.116,1.277 -3.116,2.628c0,1.501 0.75,2.29 3.491,3.941c3.341,2.028 4.58,4.58 4.58,7.245c0,4.618 -3.416,7.659 -8.371,7.659c-2.027,0 -4.016,-0.526 -4.843,-1.013l0.714,-4.243Z" style="fill:#3a8348;fill-rule:nonzero;"/><path d="M74.475,29.157l-9.718,-9.719l-19.438,19.438l19.247,-25.869l8.004,8.071l1.905,8.079Z" style="fill:#2e6c3e;fill-rule:nonzero;"/><path d="M93.826,14.572l-9.719,9.719l-9.719,9.719l-9.719,-9.719l-9.719,9.719l9.719,9.719l9.719,9.719l9.719,-9.719l9.719,-9.719l9.719,-9.719l-9.719,-9.719Zm29.507,22.412l7.996,-18.02l0,-0.111l-7.246,0l0,-4.281l12.801,0l0,3.642l-7.657,17.269l0,0.113l7.62,0l0,4.279l-13.514,0l0,-2.891Zm-1.774,2.432c-0.712,0.338 -2.101,0.601 -3.829,0.601c-6.456,0 -9.535,-5.331 -9.535,-12.501c0,-9.536 5.294,-13.253 10.212,-13.253c1.726,0 2.927,0.339 3.416,0.677l-0.826,4.129c-0.564,-0.263 -1.201,-0.487 -2.291,-0.487c-2.777,0 -5.293,2.402 -5.293,8.67c0,6.045 2.29,8.41 5.293,8.41c0.827,0 1.765,-0.187 2.365,-0.375l0.488,4.129Z" style="fill:#2a4482;fill-rule:nonzero;"/><path d="M93.826,14.572l-19.438,38.876l29.157,-29.157l-9.719,-9.719Z" style="fill:#2e2e65;fill-rule:nonzero;"/></svg>