<?xml version="1.0" encoding="UTF-8" standalone="no"?><!DOCTYPE svg PUBLIC "-//W3C//DTD SVG 1.1//EN" "http://www.w3.org/Graphics/SVG/1.1/DTD/svg11.dtd"><svg width="100%" height="100%" viewBox="0 0 281 60" version="1.1" xmlns="http://www.w3.org/2000/svg" xmlns:xlink="http://www.w3.org/1999/xlink" xml:space="preserve" xmlns:serif="http://www.serif.com/" style="fill-rule:evenodd;clip-rule:evenodd;stroke-linejoin:round;stroke-miterlimit:1.41421;"><g><path d="M102.603,5.818l-3.237,0l0,2.523l3.619,0l0,1.287l-5.186,0l0,-8.587l4.995,0l0,1.286l-3.428,0l0,2.217l3.237,0l0,1.274Z" style="fill-rule:nonzero;"/><path d="M109.826,7.768c0,0.739 0.026,1.35 0.051,1.86l-1.376,0l-0.076,-0.943l-0.025,0c-0.268,0.446 -0.88,1.083 -1.988,1.083c-1.134,0 -2.166,-0.675 -2.166,-2.701l0,-3.644l1.567,0l0,3.376c0,1.033 0.331,1.695 1.159,1.695c0.625,0 1.033,-0.446 1.198,-0.841c0.051,-0.14 0.089,-0.306 0.089,-0.484l0,-3.746l1.567,0l0,4.345Z" style="fill-rule:nonzero;"/><path d="M111.609,5.423c0,-0.84 -0.013,-1.44 -0.051,-2l1.364,0l0.05,1.185l0.052,0c0.305,-0.879 1.031,-1.325 1.694,-1.325c0.153,0 0.242,0.012 0.37,0.038l0,1.478c-0.128,-0.026 -0.268,-0.051 -0.459,-0.051c-0.752,0 -1.262,0.484 -1.402,1.185c-0.025,0.14 -0.051,0.306 -0.051,0.484l0,3.211l-1.567,0l0,-4.205Z" style="fill-rule:nonzero;"/><path d="M117.342,6.532c0,1.198 0.586,2.102 1.542,2.102c0.892,0 1.516,-0.879 1.516,-2.128c0,-0.968 -0.433,-2.076 -1.503,-2.076c-1.109,0 -1.555,1.07 -1.555,2.102Zm4.676,-0.064c0,2.281 -1.605,3.3 -3.185,3.3c-1.759,0 -3.109,-1.21 -3.109,-3.198c0,-2.038 1.338,-3.287 3.211,-3.287c1.847,0 3.083,1.3 3.083,3.185Z" style="fill-rule:nonzero;"/><path d="M124.961,7.029c0,0.153 0.012,0.293 0.05,0.433c0.153,0.637 0.714,1.096 1.376,1.096c0.995,0 1.58,-0.828 1.58,-2.052c0,-1.095 -0.535,-1.987 -1.541,-1.987c-0.65,0 -1.249,0.471 -1.402,1.159c-0.038,0.128 -0.063,0.268 -0.063,0.395l0,0.956Zm-1.568,-1.542c0,-0.815 -0.025,-1.478 -0.051,-2.064l1.376,0l0.077,0.955l0.025,0c0.459,-0.7 1.185,-1.095 2.128,-1.095c1.427,0 2.612,1.223 2.612,3.16c0,2.242 -1.414,3.325 -2.828,3.325c-0.778,0 -1.428,-0.331 -1.746,-0.828l-0.025,0l0,3.211l-1.568,0l0,-6.664Z" style="fill-rule:nonzero;"/><path d="M134.591,2.455c-0.445,0 -0.764,-0.357 -0.764,-0.778c0,-0.446 0.331,-0.789 0.777,-0.789c0.446,0 0.765,0.331 0.765,0.789c0,0.421 -0.319,0.778 -0.765,0.778l-0.013,0Zm-0.369,4.141c-1.109,-0.026 -2.166,0.216 -2.166,1.159c0,0.612 0.395,0.892 0.892,0.892c0.624,0 1.083,-0.408 1.223,-0.854c0.038,-0.114 0.051,-0.242 0.051,-0.344l0,-0.853Zm-2.166,-4.141c-0.446,0 -0.777,-0.357 -0.777,-0.778c0,-0.446 0.344,-0.789 0.803,-0.789c0.42,0 0.751,0.331 0.751,0.789c0,0.421 -0.318,0.778 -0.764,0.778l-0.013,0Zm3.695,5.682c0,0.561 0.026,1.109 0.089,1.491l-1.414,0l-0.102,-0.688l-0.038,0c-0.383,0.484 -1.032,0.828 -1.835,0.828c-1.249,0 -1.949,-0.905 -1.949,-1.848c0,-1.566 1.388,-2.356 3.682,-2.344l0,-0.102c0,-0.408 -0.166,-1.083 -1.261,-1.083c-0.612,0 -1.249,0.192 -1.669,0.459l-0.307,-1.019c0.459,-0.281 1.262,-0.548 2.243,-0.548c1.987,0 2.561,1.261 2.561,2.612l0,2.242Z" style="fill-rule:nonzero;"/><path d="M137.496,9.628l0,-6.205l1.58,0l0,6.205l-1.58,0Zm1.669,-7.938c0,0.472 -0.344,0.841 -0.892,0.841c-0.522,0 -0.866,-0.369 -0.866,-0.841c0,-0.484 0.356,-0.854 0.879,-0.854c0.535,0 0.866,0.37 0.879,0.854Z" style="fill-rule:nonzero;"/><path d="M140.77,8.188c0.357,0.217 1.032,0.446 1.592,0.446c0.688,0 0.995,-0.28 0.995,-0.688c0,-0.42 -0.255,-0.637 -1.02,-0.904c-1.21,-0.421 -1.72,-1.083 -1.707,-1.81c0,-1.095 0.904,-1.949 2.344,-1.949c0.688,0 1.287,0.178 1.643,0.369l-0.305,1.109c-0.268,-0.153 -0.765,-0.357 -1.313,-0.357c-0.56,0 -0.866,0.268 -0.866,0.65c0,0.395 0.293,0.586 1.083,0.866c1.121,0.408 1.644,0.981 1.656,1.899c0,1.121 -0.879,1.949 -2.522,1.949c-0.752,0 -1.427,-0.191 -1.886,-0.446l0.306,-1.134Z" style="fill-rule:nonzero;"/><path d="M150.809,9.437c-0.331,0.153 -0.981,0.331 -1.758,0.331c-1.937,0 -3.198,-1.248 -3.198,-3.172c0,-1.861 1.274,-3.313 3.453,-3.313c0.573,0 1.159,0.127 1.515,0.293l-0.28,1.172c-0.255,-0.115 -0.624,-0.242 -1.184,-0.242c-1.199,0 -1.912,0.879 -1.899,2.013c0,1.274 0.828,2.001 1.899,2.001c0.547,0 0.929,-0.115 1.235,-0.243l0.217,1.16Z" style="fill-rule:nonzero;"/><path d="M152.057,0.582l1.58,0l0,3.695l0.025,0c0.191,-0.294 0.458,-0.548 0.778,-0.714c0.305,-0.178 0.674,-0.28 1.07,-0.28c1.057,0 2.166,0.7 2.166,2.688l0,3.657l-1.567,0l0,-3.479c0,-0.904 -0.332,-1.579 -1.199,-1.579c-0.611,0 -1.044,0.408 -1.21,0.879c-0.05,0.127 -0.063,0.293 -0.063,0.471l0,3.708l-1.58,0l0,-9.046Z" style="fill-rule:nonzero;"/><path d="M163.268,5.869c0.013,-0.573 -0.241,-1.516 -1.286,-1.516c-0.969,0 -1.376,0.879 -1.441,1.516l2.727,0Zm-2.727,1.096c0.039,1.121 0.918,1.605 1.911,1.605c0.727,0 1.249,-0.102 1.721,-0.28l0.229,1.083c-0.535,0.217 -1.274,0.395 -2.166,0.395c-2.013,0 -3.198,-1.248 -3.198,-3.147c0,-1.72 1.045,-3.338 3.032,-3.338c2.027,0 2.676,1.656 2.676,3.02c0,0.293 -0.025,0.522 -0.051,0.662l-4.154,0Z" style="fill-rule:nonzero;"/><path d="M170.44,1.041l0,5.007c0,1.682 0.701,2.459 1.758,2.459c1.134,0 1.809,-0.777 1.809,-2.459l0,-5.007l1.567,0l0,4.905c0,2.65 -1.363,3.822 -3.426,3.822c-1.989,0 -3.275,-1.108 -3.275,-3.809l0,-4.918l1.567,0Z" style="fill-rule:nonzero;"/><path d="M177.396,5.271c0,-0.714 -0.013,-1.313 -0.051,-1.848l1.376,0l0.076,0.93l0.038,0c0.268,-0.484 0.943,-1.07 1.975,-1.07c1.083,0 2.205,0.7 2.205,2.663l0,3.682l-1.568,0l0,-3.504c0,-0.892 -0.331,-1.567 -1.185,-1.567c-0.624,0 -1.057,0.446 -1.223,0.917c-0.051,0.14 -0.063,0.332 -0.063,0.51l0,3.644l-1.58,0l0,-4.357Z" style="fill-rule:nonzero;"/><path d="M184.772,9.628l0,-6.205l1.58,0l0,6.205l-1.58,0Zm1.669,-7.938c0,0.472 -0.344,0.841 -0.892,0.841c-0.522,0 -0.866,-0.369 -0.866,-0.841c0,-0.484 0.356,-0.854 0.879,-0.854c0.535,0 0.866,0.37 0.879,0.854Z" style="fill-rule:nonzero;"/><path d="M189.345,6.532c0,1.198 0.587,2.102 1.542,2.102c0.891,0 1.516,-0.879 1.516,-2.128c0,-0.968 -0.433,-2.076 -1.503,-2.076c-1.109,0 -1.555,1.07 -1.555,2.102Zm4.677,-0.064c0,2.281 -1.606,3.3 -3.186,3.3c-1.759,0 -3.109,-1.21 -3.109,-3.198c0,-2.038 1.338,-3.287 3.211,-3.287c1.847,0 3.084,1.3 3.084,3.185Z" style="fill-rule:nonzero;"/><path d="M195.397,5.271c0,-0.714 -0.013,-1.313 -0.051,-1.848l1.376,0l0.076,0.93l0.038,0c0.268,-0.484 0.943,-1.07 1.975,-1.07c1.083,0 2.205,0.7 2.205,2.663l0,3.682l-1.568,0l0,-3.504c0,-0.892 -0.331,-1.567 -1.185,-1.567c-0.624,0 -1.057,0.446 -1.223,0.917c-0.051,0.14 -0.063,0.332 -0.063,0.51l0,3.644l-1.58,0l0,-4.357Z" style="fill-rule:nonzero;"/><path d="M203.537,9.768c-0.56,0 -0.956,-0.433 -0.956,-1.006c0,-0.587 0.408,-1.007 0.969,-1.007c0.573,0 0.968,0.408 0.968,1.007c0,0.573 -0.382,1.006 -0.968,1.006l-0.013,0Z" style="fill-rule:nonzero;"/><path d="M213.461,5.818l-3.236,0l0,2.523l3.619,0l0,1.287l-5.186,0l0,-8.587l4.994,0l0,1.286l-3.427,0l0,2.217l3.236,0l0,1.274Z" style="fill-rule:nonzero;"/><path d="M220.685,7.768c0,0.739 0.025,1.35 0.051,1.86l-1.376,0l-0.077,-0.943l-0.025,0c-0.268,0.446 -0.879,1.083 -1.987,1.083c-1.134,0 -2.166,-0.675 -2.166,-2.701l0,-3.644l1.567,0l0,3.376c0,1.033 0.331,1.695 1.159,1.695c0.624,0 1.032,-0.446 1.197,-0.841c0.051,-0.14 0.09,-0.306 0.09,-0.484l0,-3.746l1.567,0l0,4.345Z" style="fill-rule:nonzero;"/><path d="M222.468,5.423c0,-0.84 -0.013,-1.44 -0.051,-2l1.363,0l0.051,1.185l0.051,0c0.306,-0.879 1.032,-1.325 1.694,-1.325c0.154,0 0.243,0.012 0.37,0.038l0,1.478c-0.127,-0.026 -0.267,-0.051 -0.459,-0.051c-0.751,0 -1.261,0.484 -1.401,1.185c-0.025,0.14 -0.051,0.306 -0.051,0.484l0,3.211l-1.567,0l0,-4.205Z" style="fill-rule:nonzero;"/><path d="M228.2,6.532c0,1.198 0.587,2.102 1.542,2.102c0.892,0 1.517,-0.879 1.517,-2.128c0,-0.968 -0.434,-2.076 -1.504,-2.076c-1.108,0 -1.555,1.07 -1.555,2.102Zm4.677,-0.064c0,2.281 -1.605,3.3 -3.185,3.3c-1.759,0 -3.11,-1.21 -3.11,-3.198c0,-2.038 1.338,-3.287 3.211,-3.287c1.848,0 3.084,1.3 3.084,3.185Z" style="fill-rule:nonzero;"/><path d="M235.819,7.029c0,0.153 0.013,0.293 0.051,0.433c0.153,0.637 0.713,1.096 1.376,1.096c0.994,0 1.58,-0.828 1.58,-2.052c0,-1.095 -0.535,-1.987 -1.542,-1.987c-0.649,0 -1.249,0.471 -1.401,1.159c-0.038,0.128 -0.064,0.268 -0.064,0.395l0,0.956Zm-1.567,-1.542c0,-0.815 -0.025,-1.478 -0.051,-2.064l1.376,0l0.076,0.955l0.026,0c0.459,-0.7 1.184,-1.095 2.128,-1.095c1.427,0 2.612,1.223 2.612,3.16c0,2.242 -1.415,3.325 -2.829,3.325c-0.777,0 -1.427,-0.331 -1.745,-0.828l-0.026,0l0,3.211l-1.567,0l0,-6.664Z" style="fill-rule:nonzero;"/><path d="M245.45,2.455c-0.445,0 -0.764,-0.357 -0.764,-0.778c0,-0.446 0.332,-0.789 0.777,-0.789c0.446,0 0.765,0.331 0.765,0.789c0,0.421 -0.319,0.778 -0.765,0.778l-0.013,0Zm-0.369,4.141c-1.108,-0.026 -2.166,0.216 -2.166,1.159c0,0.612 0.395,0.892 0.892,0.892c0.625,0 1.083,-0.408 1.223,-0.854c0.039,-0.114 0.051,-0.242 0.051,-0.344l0,-0.853Zm-2.166,-4.141c-0.446,0 -0.777,-0.357 -0.777,-0.778c0,-0.446 0.344,-0.789 0.803,-0.789c0.42,0 0.752,0.331 0.752,0.789c0,0.421 -0.319,0.778 -0.765,0.778l-0.013,0Zm3.696,5.682c0,0.561 0.025,1.109 0.088,1.491l-1.414,0l-0.102,-0.688l-0.038,0c-0.382,0.484 -1.033,0.828 -1.835,0.828c-1.248,0 -1.949,-0.905 -1.949,-1.848c0,-1.566 1.388,-2.356 3.682,-2.344l0,-0.102c0,-0.408 -0.166,-1.083 -1.262,-1.083c-0.611,0 -1.248,0.192 -1.669,0.459l-0.305,-1.019c0.459,-0.281 1.262,-0.548 2.242,-0.548c1.987,0 2.562,1.261 2.562,2.612l0,2.242Z" style="fill-rule:nonzero;"/><path d="M248.355,9.628l0,-6.205l1.58,0l0,6.205l-1.58,0Zm1.669,-7.938c0,0.472 -0.344,0.841 -0.892,0.841c-0.522,0 -0.866,-0.369 -0.866,-0.841c0,-0.484 0.356,-0.854 0.879,-0.854c0.535,0 0.866,0.37 0.879,0.854Z" style="fill-rule:nonzero;"/><path d="M251.629,8.188c0.357,0.217 1.031,0.446 1.592,0.446c0.688,0 0.994,-0.28 0.994,-0.688c0,-0.42 -0.255,-0.637 -1.02,-0.904c-1.209,-0.421 -1.719,-1.083 -1.707,-1.81c0,-1.095 0.905,-1.949 2.345,-1.949c0.688,0 1.286,0.178 1.644,0.369l-0.306,1.109c-0.268,-0.153 -0.765,-0.357 -1.312,-0.357c-0.561,0 -0.867,0.268 -0.867,0.65c0,0.395 0.293,0.586 1.083,0.866c1.121,0.408 1.644,0.981 1.657,1.899c0,1.121 -0.88,1.949 -2.524,1.949c-0.751,0 -1.427,-0.191 -1.886,-0.446l0.307,-1.134Z" style="fill-rule:nonzero;"/><path d="M261.668,9.437c-0.332,0.153 -0.981,0.331 -1.759,0.331c-1.937,0 -3.198,-1.248 -3.198,-3.172c0,-1.861 1.275,-3.313 3.453,-3.313c0.573,0 1.159,0.127 1.517,0.293l-0.28,1.172c-0.255,-0.115 -0.625,-0.242 -1.186,-0.242c-1.197,0 -1.912,0.879 -1.899,2.013c0,1.274 0.828,2.001 1.899,2.001c0.548,0 0.931,-0.115 1.235,-0.243l0.218,1.16Z" style="fill-rule:nonzero;"/><path d="M262.916,0.582l1.58,0l0,3.695l0.026,0c0.19,-0.294 0.458,-0.548 0.777,-0.714c0.306,-0.178 0.675,-0.28 1.07,-0.28c1.057,0 2.166,0.7 2.166,2.688l0,3.657l-1.567,0l0,-3.479c0,-0.904 -0.331,-1.579 -1.198,-1.579c-0.612,0 -1.044,0.408 -1.21,0.879c-0.051,0.127 -0.064,0.293 -0.064,0.471l0,3.708l-1.58,0l0,-9.046Z" style="fill-rule:nonzero;"/><path d="M274.127,5.869c0.013,-0.573 -0.242,-1.516 -1.287,-1.516c-0.968,0 -1.376,0.879 -1.439,1.516l2.726,0Zm-2.726,1.096c0.038,1.121 0.918,1.605 1.911,1.605c0.726,0 1.249,-0.102 1.72,-0.28l0.229,1.083c-0.535,0.217 -1.274,0.395 -2.166,0.395c-2.013,0 -3.197,-1.248 -3.197,-3.147c0,-1.72 1.044,-3.338 3.032,-3.338c2.025,0 2.676,1.656 2.676,3.02c0,0.293 -0.026,0.522 -0.052,0.662l-4.153,0Z" style="fill-rule:nonzero;"/><path d="M276.955,5.423c0,-0.84 -0.012,-1.44 -0.051,-2l1.364,0l0.051,1.185l0.05,0c0.306,-0.879 1.033,-1.325 1.696,-1.325c0.152,0 0.241,0.012 0.369,0.038l0,1.478c-0.128,-0.026 -0.268,-0.051 -0.459,-0.051c-0.752,0 -1.261,0.484 -1.402,1.185c-0.025,0.14 -0.05,0.306 -0.05,0.484l0,3.211l-1.568,0l0,-4.205Z" style="fill-rule:nonzero;"/><path d="M97.799,16.927l4.957,0l0,1.286l-3.39,0l0,2.37l3.16,0l0,1.287l-3.16,0l0,3.644l-1.567,0l0,-8.587Z" style="fill-rule:nonzero;"/><path d="M105.086,22.418c0,1.198 0.586,2.103 1.542,2.103c0.892,0 1.516,-0.88 1.516,-2.128c0,-0.969 -0.433,-2.077 -1.503,-2.077c-1.109,0 -1.555,1.07 -1.555,2.102Zm4.676,-0.064c0,2.281 -1.605,3.3 -3.185,3.3c-1.758,0 -3.109,-1.21 -3.109,-3.197c0,-2.04 1.338,-3.288 3.211,-3.288c1.848,0 3.083,1.3 3.083,3.185Z" style="fill-rule:nonzero;"/><path d="M111.048,21.157c0,-0.714 -0.012,-1.313 -0.05,-1.848l1.376,0l0.076,0.93l0.038,0c0.268,-0.484 0.943,-1.07 1.975,-1.07c1.083,0 2.205,0.701 2.205,2.663l0,3.682l-1.568,0l0,-3.504c0,-0.891 -0.331,-1.567 -1.185,-1.567c-0.624,0 -1.057,0.446 -1.223,0.917c-0.051,0.14 -0.063,0.332 -0.063,0.51l0,3.644l-1.581,0l0,-4.357Z" style="fill-rule:nonzero;"/><path d="M122.489,21.896c0,-0.128 -0.013,-0.281 -0.039,-0.408c-0.14,-0.612 -0.636,-1.109 -1.35,-1.109c-1.007,0 -1.567,0.892 -1.567,2.052c0,1.134 0.56,1.962 1.554,1.962c0.637,0 1.198,-0.433 1.351,-1.108c0.038,-0.14 0.051,-0.294 0.051,-0.459l0,-0.93Zm1.567,-5.428l0,7.301c0,0.637 0.025,1.325 0.051,1.745l-1.402,0l-0.063,-0.981l-0.026,0c-0.369,0.688 -1.121,1.121 -2.026,1.121c-1.478,0 -2.65,-1.261 -2.65,-3.172c-0.013,-2.077 1.287,-3.313 2.778,-3.313c0.853,0 1.465,0.357 1.746,0.815l0.025,0l0,-3.516l1.567,0Z" style="fill-rule:nonzero;"/><path d="M125.661,24.074c0.356,0.217 1.032,0.447 1.592,0.447c0.688,0 0.993,-0.281 0.993,-0.688c0,-0.421 -0.254,-0.638 -1.018,-0.905c-1.211,-0.421 -1.72,-1.083 -1.707,-1.809c0,-1.096 0.904,-1.95 2.344,-1.95c0.687,0 1.286,0.179 1.642,0.37l-0.304,1.108c-0.268,-0.153 -0.765,-0.356 -1.313,-0.356c-0.56,0 -0.866,0.267 -0.866,0.649c0,0.395 0.293,0.586 1.082,0.867c1.122,0.407 1.645,0.981 1.657,1.898c0,1.121 -0.879,1.949 -2.523,1.949c-0.751,0 -1.426,-0.191 -1.885,-0.446l0.306,-1.134Z" style="fill-rule:nonzero;"/><path d="M133.864,25.514l0,-5.033l-0.84,0l0,-1.172l0.84,0l0,-0.267c0,-0.803 0.217,-1.605 0.752,-2.115c0.459,-0.433 1.083,-0.599 1.619,-0.599c0.42,0 0.751,0.064 1.006,0.153l-0.115,1.21c-0.165,-0.064 -0.382,-0.114 -0.662,-0.114c-0.777,0 -1.045,0.649 -1.045,1.414l0,0.318l1.363,0l0,1.172l-1.35,0l0,5.033l-1.568,0Z" style="fill-rule:nonzero;"/><path d="M141.827,18.341c-0.445,0 -0.764,-0.357 -0.764,-0.777c0,-0.446 0.331,-0.79 0.777,-0.79c0.446,0 0.765,0.331 0.765,0.79c0,0.42 -0.319,0.777 -0.765,0.777l-0.013,0Zm-2.535,0c-0.446,0 -0.777,-0.357 -0.777,-0.777c0,-0.446 0.344,-0.79 0.803,-0.79c0.42,0 0.751,0.331 0.751,0.79c0,0.42 -0.318,0.777 -0.764,0.777l-0.013,0Zm4.013,5.313c0,0.739 0.025,1.35 0.051,1.86l-1.376,0l-0.076,-0.943l-0.025,0c-0.268,0.446 -0.88,1.083 -1.988,1.083c-1.134,0 -2.166,-0.675 -2.166,-2.701l0,-3.644l1.567,0l0,3.377c0,1.032 0.331,1.694 1.159,1.694c0.625,0 1.033,-0.446 1.198,-0.841c0.051,-0.14 0.089,-0.306 0.089,-0.484l0,-3.746l1.567,0l0,4.345Z" style="fill-rule:nonzero;"/><path d="M144.998,21.31c0,-0.841 -0.012,-1.44 -0.051,-2.001l1.364,0l0.05,1.185l0.052,0c0.306,-0.879 1.031,-1.325 1.695,-1.325c0.152,0 0.242,0.013 0.369,0.039l0,1.477c-0.127,-0.025 -0.268,-0.051 -0.459,-0.051c-0.751,0 -1.261,0.485 -1.402,1.185c-0.025,0.14 -0.05,0.306 -0.05,0.484l0,3.211l-1.568,0l0,-4.204Z" style="fill-rule:nonzero;"/><path d="M152.17,21.31c0,-0.841 -0.013,-1.44 -0.051,-2.001l1.364,0l0.05,1.185l0.052,0c0.306,-0.879 1.031,-1.325 1.694,-1.325c0.153,0 0.243,0.013 0.37,0.039l0,1.477c-0.127,-0.025 -0.268,-0.051 -0.459,-0.051c-0.751,0 -1.261,0.485 -1.402,1.185c-0.025,0.14 -0.051,0.306 -0.051,0.484l0,3.211l-1.567,0l0,-4.204Z" style="fill-rule:nonzero;"/><path d="M160.426,21.755c0.014,-0.573 -0.241,-1.516 -1.286,-1.516c-0.969,0 -1.376,0.88 -1.441,1.516l2.727,0Zm-2.727,1.096c0.039,1.122 0.918,1.606 1.912,1.606c0.726,0 1.249,-0.103 1.72,-0.281l0.23,1.083c-0.535,0.217 -1.275,0.395 -2.166,0.395c-2.014,0 -3.199,-1.248 -3.199,-3.147c0,-1.72 1.045,-3.338 3.033,-3.338c2.026,0 2.675,1.657 2.675,3.02c0,0.293 -0.025,0.522 -0.05,0.662l-4.155,0Z" style="fill-rule:nonzero;"/><path d="M167.217,21.794c0,-0.14 -0.013,-0.294 -0.051,-0.42c-0.166,-0.574 -0.612,-1.007 -1.274,-1.007c-0.879,0 -1.53,0.764 -1.53,2.026c0,1.057 0.536,1.911 1.517,1.911c0.586,0 1.096,-0.383 1.274,-0.943c0.039,-0.166 0.064,-0.382 0.064,-0.561l0,-1.006Zm1.567,2.815c0,1.3 -0.267,2.23 -0.918,2.816c-0.649,0.574 -1.542,0.752 -2.395,0.752c-0.79,0 -1.631,-0.166 -2.166,-0.497l0.345,-1.185c0.394,0.23 1.057,0.472 1.808,0.472c1.02,0 1.784,-0.535 1.784,-1.873l0,-0.535l-0.025,0c-0.357,0.547 -0.994,0.917 -1.81,0.917c-1.542,0 -2.637,-1.274 -2.637,-3.033c0,-2.038 1.325,-3.274 2.816,-3.274c0.942,0 1.503,0.459 1.796,0.968l0.025,0l0.065,-0.828l1.363,0c-0.025,0.42 -0.051,0.93 -0.051,1.784l0,3.516Z" style="fill-rule:nonzero;"/><path d="M170.413,25.514l0,-6.205l1.58,0l0,6.205l-1.58,0Zm1.669,-7.937c0,0.471 -0.344,0.84 -0.891,0.84c-0.523,0 -0.867,-0.369 -0.867,-0.84c0,-0.485 0.357,-0.854 0.879,-0.854c0.535,0 0.866,0.369 0.879,0.854Z" style="fill-rule:nonzero;"/><path d="M174.899,22.418c0,1.198 0.586,2.103 1.542,2.103c0.891,0 1.515,-0.88 1.515,-2.128c0,-0.969 -0.432,-2.077 -1.503,-2.077c-1.109,0 -1.554,1.07 -1.554,2.102Zm4.675,-0.064c0,2.281 -1.605,3.3 -3.185,3.3c-1.758,0 -3.109,-1.21 -3.109,-3.197c0,-2.04 1.338,-3.288 3.211,-3.288c1.848,0 3.083,1.3 3.083,3.185Z" style="fill-rule:nonzero;"/><path d="M180.861,21.157c0,-0.714 -0.013,-1.313 -0.051,-1.848l1.376,0l0.076,0.93l0.038,0c0.268,-0.484 0.943,-1.07 1.975,-1.07c1.083,0 2.205,0.701 2.205,2.663l0,3.682l-1.568,0l0,-3.504c0,-0.891 -0.331,-1.567 -1.185,-1.567c-0.624,0 -1.057,0.446 -1.223,0.917c-0.051,0.14 -0.063,0.332 -0.063,0.51l0,3.644l-1.58,0l0,-4.357Z" style="fill-rule:nonzero;"/><path d="M191.434,22.482c-1.109,-0.025 -2.166,0.216 -2.166,1.159c0,0.612 0.395,0.892 0.892,0.892c0.624,0 1.083,-0.408 1.223,-0.854c0.038,-0.114 0.051,-0.242 0.051,-0.344l0,-0.853Zm1.529,1.541c0,0.561 0.025,1.109 0.089,1.491l-1.414,0l-0.102,-0.688l-0.038,0c-0.383,0.484 -1.032,0.828 -1.835,0.828c-1.249,0 -1.949,-0.904 -1.949,-1.847c0,-1.567 1.389,-2.357 3.682,-2.345l0,-0.102c0,-0.407 -0.165,-1.083 -1.261,-1.083c-0.612,0 -1.249,0.192 -1.669,0.459l-0.307,-1.019c0.459,-0.28 1.262,-0.548 2.243,-0.548c1.988,0 2.561,1.262 2.561,2.612l0,2.242Z" style="fill-rule:nonzero;"/><rect x="194.618" y="16.468" width="1.58" height="9.046" style="fill-rule:nonzero;"/><path d="M201.728,21.755c0.013,-0.573 -0.242,-1.516 -1.286,-1.516c-0.969,0 -1.376,0.88 -1.441,1.516l2.727,0Zm-2.727,1.096c0.039,1.122 0.918,1.606 1.911,1.606c0.727,0 1.249,-0.103 1.721,-0.281l0.229,1.083c-0.535,0.217 -1.274,0.395 -2.166,0.395c-2.013,0 -3.198,-1.248 -3.198,-3.147c0,-1.72 1.045,-3.338 3.032,-3.338c2.027,0 2.676,1.657 2.676,3.02c0,0.293 -0.025,0.522 -0.051,0.662l-4.154,0Z" style="fill-rule:nonzero;"/><path d="M211.971,21.705l-3.236,0l0,2.523l3.618,0l0,1.286l-5.186,0l0,-8.587l4.994,0l0,1.286l-3.426,0l0,2.218l3.236,0l0,1.274Z" style="fill-rule:nonzero;"/><path d="M213.664,21.157c0,-0.714 -0.012,-1.313 -0.051,-1.848l1.376,0l0.077,0.93l0.038,0c0.267,-0.484 0.943,-1.07 1.974,-1.07c1.083,0 2.205,0.701 2.205,2.663l0,3.682l-1.567,0l0,-3.504c0,-0.891 -0.331,-1.567 -1.186,-1.567c-0.624,0 -1.056,0.446 -1.222,0.917c-0.051,0.14 -0.064,0.332 -0.064,0.51l0,3.644l-1.58,0l0,-4.357Z" style="fill-rule:nonzero;"/><path d="M222.684,17.717l0,1.592l1.491,0l0,1.172l-1.491,0l0,2.74c0,0.752 0.204,1.147 0.802,1.147c0.293,0 0.434,-0.026 0.613,-0.077l0.025,1.198c-0.229,0.089 -0.638,0.165 -1.134,0.165c-0.574,0 -1.057,-0.203 -1.35,-0.522c-0.332,-0.357 -0.485,-0.918 -0.485,-1.733l0,-2.918l-0.891,0l0,-1.172l0.891,0l0,-1.146l1.529,-0.446Z" style="fill-rule:nonzero;"/><path d="M226.391,19.309l0.65,2.816c0.14,0.663 0.28,1.338 0.395,2.013l0.025,0c0.128,-0.675 0.331,-1.363 0.51,-2l0.803,-2.829l1.274,0l0.777,2.753c0.191,0.726 0.357,1.401 0.496,2.076l0.027,0c0.101,-0.675 0.241,-1.35 0.407,-2.076l0.689,-2.753l1.541,0l-1.95,6.205l-1.452,0l-0.739,-2.523c-0.192,-0.649 -0.331,-1.236 -0.472,-1.987l-0.025,0c-0.127,0.764 -0.293,1.376 -0.472,1.987l-0.789,2.523l-1.466,0l-1.835,-6.205l1.606,0Z" style="fill-rule:nonzero;"/><path d="M234.99,25.514l0,-6.205l1.58,0l0,6.205l-1.58,0Zm1.669,-7.937c0,0.471 -0.343,0.84 -0.891,0.84c-0.523,0 -0.866,-0.369 -0.866,-0.84c0,-0.485 0.356,-0.854 0.878,-0.854c0.536,0 0.867,0.369 0.879,0.854Z" style="fill-rule:nonzero;"/><path d="M242.813,25.323c-0.331,0.153 -0.981,0.331 -1.758,0.331c-1.937,0 -3.198,-1.248 -3.198,-3.172c0,-1.86 1.274,-3.313 3.453,-3.313c0.573,0 1.159,0.127 1.515,0.293l-0.28,1.172c-0.255,-0.114 -0.624,-0.242 -1.184,-0.242c-1.199,0 -1.912,0.879 -1.899,2.013c0,1.274 0.828,2.001 1.899,2.001c0.547,0 0.929,-0.115 1.235,-0.242l0.217,1.159Z" style="fill-rule:nonzero;"/><path d="M245.539,22.036l0.026,0c0.152,-0.242 0.331,-0.51 0.497,-0.726l1.503,-2.001l1.885,0l-2.293,2.536l2.624,3.669l-1.923,0l-1.784,-2.739l-0.535,0.624l0,2.115l-1.567,0l0,-9.046l1.567,0l0,5.568Z" style="fill-rule:nonzero;"/><rect x="250.634" y="16.468" width="1.58" height="9.046" style="fill-rule:nonzero;"/><path d="M259.463,23.654c0,0.739 0.025,1.35 0.051,1.86l-1.376,0l-0.076,-0.943l-0.026,0c-0.267,0.446 -0.879,1.083 -1.987,1.083c-1.134,0 -2.166,-0.675 -2.166,-2.701l0,-3.644l1.567,0l0,3.377c0,1.032 0.331,1.694 1.159,1.694c0.625,0 1.033,-0.446 1.198,-0.841c0.051,-0.14 0.09,-0.306 0.09,-0.484l0,-3.746l1.566,0l0,4.345Z" style="fill-rule:nonzero;"/><path d="M261.156,21.157c0,-0.714 -0.012,-1.313 -0.051,-1.848l1.377,0l0.077,0.93l0.038,0c0.267,-0.484 0.942,-1.07 1.974,-1.07c1.083,0 2.205,0.701 2.205,2.663l0,3.682l-1.568,0l0,-3.504c0,-0.891 -0.331,-1.567 -1.184,-1.567c-0.624,0 -1.058,0.446 -1.224,0.917c-0.051,0.14 -0.064,0.332 -0.064,0.51l0,3.644l-1.58,0l0,-4.357Z" style="fill-rule:nonzero;"/><path d="M272.496,21.794c0,-0.14 -0.013,-0.294 -0.052,-0.42c-0.165,-0.574 -0.611,-1.007 -1.273,-1.007c-0.88,0 -1.529,0.764 -1.529,2.026c0,1.057 0.535,1.911 1.516,1.911c0.586,0 1.096,-0.383 1.274,-0.943c0.038,-0.166 0.064,-0.382 0.064,-0.561l0,-1.006Zm1.567,2.815c0,1.3 -0.268,2.23 -0.917,2.816c-0.65,0.574 -1.542,0.752 -2.396,0.752c-0.79,0 -1.631,-0.166 -2.166,-0.497l0.344,-1.185c0.395,0.23 1.058,0.472 1.809,0.472c1.02,0 1.785,-0.535 1.785,-1.873l0,-0.535l-0.026,0c-0.357,0.547 -0.994,0.917 -1.809,0.917c-1.542,0 -2.638,-1.274 -2.638,-3.033c0,-2.038 1.325,-3.274 2.816,-3.274c0.943,0 1.503,0.459 1.796,0.968l0.026,0l0.063,-0.828l1.363,0c-0.025,0.42 -0.05,0.93 -0.05,1.784l0,3.516Z" style="fill-rule:nonzero;"/><path d="M276.305,25.654c-0.561,0 -0.956,-0.433 -0.956,-1.006c0,-0.586 0.408,-1.007 0.969,-1.007c0.573,0 0.968,0.408 0.968,1.007c0,0.573 -0.383,1.006 -0.968,1.006l-0.013,0Z" style="fill-rule:nonzero;"/><path d="M102.603,37.59l-3.237,0l0,2.524l3.619,0l0,1.286l-5.186,0l0,-8.587l4.995,0l0,1.286l-3.428,0l0,2.218l3.237,0l0,1.273Z" style="fill-rule:nonzero;"/><path d="M105.163,35.195l1.007,3.147c0.178,0.548 0.305,1.045 0.42,1.555l0.038,0c0.115,-0.51 0.255,-0.994 0.42,-1.555l0.982,-3.147l1.656,0l-2.37,6.205l-1.541,0l-2.307,-6.205l1.695,0Z" style="fill-rule:nonzero;"/><path d="M110.641,37.196c0,-0.841 -0.013,-1.441 -0.051,-2.001l1.363,0l0.051,1.185l0.051,0c0.306,-0.879 1.032,-1.325 1.695,-1.325c0.152,0 0.242,0.013 0.369,0.038l0,1.478c-0.127,-0.026 -0.267,-0.051 -0.459,-0.051c-0.751,0 -1.261,0.484 -1.401,1.186c-0.025,0.139 -0.051,0.305 -0.051,0.483l0,3.211l-1.567,0l0,-4.204Z" style="fill-rule:nonzero;"/><path d="M116.285,38.304c0,1.197 0.586,2.103 1.542,2.103c0.891,0 1.516,-0.88 1.516,-2.128c0,-0.969 -0.434,-2.077 -1.503,-2.077c-1.109,0 -1.555,1.07 -1.555,2.102Zm4.676,-0.063c0,2.28 -1.605,3.3 -3.185,3.3c-1.759,0 -3.109,-1.211 -3.109,-3.199c0,-2.038 1.338,-3.287 3.211,-3.287c1.847,0 3.083,1.3 3.083,3.186Z" style="fill-rule:nonzero;"/><path d="M123.814,38.801c0,0.153 0.013,0.293 0.051,0.433c0.153,0.638 0.713,1.096 1.376,1.096c0.994,0 1.58,-0.829 1.58,-2.051c0,-1.096 -0.535,-1.988 -1.542,-1.988c-0.649,0 -1.249,0.471 -1.401,1.16c-0.038,0.127 -0.064,0.267 -0.064,0.394l0,0.956Zm-1.567,-1.542c0,-0.815 -0.026,-1.477 -0.051,-2.064l1.376,0l0.077,0.956l0.025,0c0.458,-0.701 1.185,-1.096 2.127,-1.096c1.428,0 2.613,1.223 2.613,3.16c0,2.243 -1.415,3.326 -2.829,3.326c-0.777,0 -1.427,-0.332 -1.745,-0.829l-0.026,0l0,3.211l-1.567,0l0,-6.664Z" style="fill-rule:nonzero;"/><path d="M129.623,39.96c0.356,0.217 1.032,0.447 1.592,0.447c0.688,0 0.995,-0.281 0.995,-0.689c0,-0.42 -0.255,-0.636 -1.02,-0.904c-1.211,-0.421 -1.72,-1.083 -1.707,-1.81c0,-1.095 0.903,-1.949 2.344,-1.949c0.688,0 1.287,0.179 1.644,0.369l-0.306,1.109c-0.267,-0.153 -0.764,-0.357 -1.312,-0.357c-0.561,0 -0.868,0.268 -0.868,0.65c0,0.395 0.294,0.587 1.084,0.867c1.122,0.407 1.644,0.98 1.657,1.898c0,1.121 -0.88,1.95 -2.523,1.95c-0.752,0 -1.427,-0.192 -1.886,-0.447l0.306,-1.134Z" style="fill-rule:nonzero;"/><path d="M136.579,37.921l0.025,0c0.153,-0.241 0.331,-0.508 0.497,-0.725l1.504,-2.001l1.885,0l-2.293,2.536l2.624,3.669l-1.923,0l-1.784,-2.739l-0.535,0.624l0,2.115l-1.568,0l0,-9.046l1.568,0l0,5.567Z" style="fill-rule:nonzero;"/><path d="M145.892,32.507l-1.568,1.885l-1.083,0l1.109,-1.885l1.542,0Zm-0.969,5.861c-1.108,-0.026 -2.166,0.216 -2.166,1.159c0,0.612 0.395,0.892 0.892,0.892c0.625,0 1.083,-0.408 1.223,-0.853c0.038,-0.115 0.051,-0.242 0.051,-0.345l0,-0.853Zm1.529,1.542c0,0.56 0.026,1.108 0.089,1.49l-1.414,0l-0.102,-0.688l-0.039,0c-0.381,0.485 -1.032,0.829 -1.834,0.829c-1.249,0 -1.949,-0.906 -1.949,-1.848c0,-1.568 1.388,-2.358 3.682,-2.345l0,-0.101c0,-0.409 -0.166,-1.083 -1.262,-1.083c-0.611,0 -1.248,0.191 -1.668,0.459l-0.306,-1.02c0.459,-0.28 1.261,-0.548 2.242,-0.548c1.987,0 2.561,1.262 2.561,2.612l0,2.243Z" style="fill-rule:nonzero;"/><path d="M156.299,39.54c0,0.739 0.025,1.35 0.051,1.86l-1.376,0l-0.076,-0.942l-0.026,0c-0.267,0.445 -0.879,1.083 -1.987,1.083c-1.134,0 -2.166,-0.676 -2.166,-2.702l0,-3.644l1.567,0l0,3.377c0,1.032 0.331,1.694 1.159,1.694c0.624,0 1.033,-0.446 1.198,-0.841c0.051,-0.14 0.09,-0.305 0.09,-0.484l0,-3.746l1.566,0l0,4.345Z" style="fill-rule:nonzero;"/><path d="M157.993,37.042c0,-0.712 -0.012,-1.312 -0.05,-1.847l1.376,0l0.076,0.93l0.038,0c0.267,-0.484 0.943,-1.07 1.974,-1.07c1.083,0 2.205,0.7 2.205,2.663l0,3.682l-1.567,0l0,-3.504c0,-0.892 -0.331,-1.566 -1.185,-1.566c-0.624,0 -1.057,0.445 -1.223,0.917c-0.051,0.139 -0.064,0.331 -0.064,0.509l0,3.644l-1.58,0l0,-4.358Z" style="fill-rule:nonzero;"/><path d="M165.28,41.4l0,-6.205l1.581,0l0,6.205l-1.581,0Zm1.669,-7.938c0,0.472 -0.343,0.841 -0.891,0.841c-0.523,0 -0.866,-0.369 -0.866,-0.841c0,-0.484 0.356,-0.853 0.878,-0.853c0.536,0 0.867,0.369 0.879,0.853Z" style="fill-rule:nonzero;"/><path d="M172.376,37.641c0.014,-0.573 -0.241,-1.516 -1.286,-1.516c-0.969,0 -1.376,0.879 -1.44,1.516l2.726,0Zm-2.726,1.096c0.039,1.122 0.918,1.605 1.911,1.605c0.726,0 1.249,-0.101 1.72,-0.28l0.23,1.083c-0.535,0.217 -1.275,0.396 -2.166,0.396c-2.014,0 -3.198,-1.249 -3.198,-3.148c0,-1.72 1.045,-3.338 3.032,-3.338c2.026,0 2.676,1.656 2.676,3.02c0,0.293 -0.026,0.522 -0.051,0.662l-4.154,0Z" style="fill-rule:nonzero;"/><path d="M175.701,41.541c-0.56,0 -0.956,-0.434 -0.956,-1.007c0,-0.586 0.408,-1.007 0.969,-1.007c0.573,0 0.968,0.408 0.968,1.007c0,0.573 -0.382,1.007 -0.968,1.007l-0.013,0Z" style="fill-rule:nonzero;"/><path d="M185.447,37.59l-3.236,0l0,2.524l3.618,0l0,1.286l-5.185,0l0,-8.587l4.994,0l0,1.286l-3.427,0l0,2.218l3.236,0l0,1.273Z" style="fill-rule:nonzero;"/><path d="M188.008,35.195l1.006,3.147c0.179,0.548 0.305,1.045 0.421,1.555l0.038,0c0.114,-0.51 0.255,-0.994 0.42,-1.555l0.981,-3.147l1.656,0l-2.37,6.205l-1.541,0l-2.306,-6.205l1.695,0Z" style="fill-rule:nonzero;"/><path d="M193.486,37.196c0,-0.841 -0.013,-1.441 -0.051,-2.001l1.363,0l0.051,1.185l0.051,0c0.305,-0.879 1.032,-1.325 1.694,-1.325c0.153,0 0.242,0.013 0.37,0.038l0,1.478c-0.128,-0.026 -0.268,-0.051 -0.459,-0.051c-0.752,0 -1.262,0.484 -1.401,1.186c-0.026,0.139 -0.051,0.305 -0.051,0.483l0,3.211l-1.567,0l0,-4.204Z" style="fill-rule:nonzero;"/><path d="M199.129,38.304c0,1.197 0.587,2.103 1.542,2.103c0.892,0 1.517,-0.88 1.517,-2.128c0,-0.969 -0.434,-2.077 -1.504,-2.077c-1.109,0 -1.555,1.07 -1.555,2.102Zm4.677,-0.063c0,2.28 -1.606,3.3 -3.186,3.3c-1.759,0 -3.109,-1.211 -3.109,-3.199c0,-2.038 1.338,-3.287 3.211,-3.287c1.847,0 3.084,1.3 3.084,3.186Z" style="fill-rule:nonzero;"/><path d="M206.658,38.801c0,0.153 0.013,0.293 0.051,0.433c0.153,0.638 0.714,1.096 1.376,1.096c0.994,0 1.58,-0.829 1.58,-2.051c0,-1.096 -0.535,-1.988 -1.541,-1.988c-0.65,0 -1.249,0.471 -1.402,1.16c-0.038,0.127 -0.064,0.267 -0.064,0.394l0,0.956Zm-1.567,-1.542c0,-0.815 -0.025,-1.477 -0.051,-2.064l1.376,0l0.077,0.956l0.026,0c0.458,-0.701 1.184,-1.096 2.127,-1.096c1.427,0 2.612,1.223 2.612,3.16c0,2.243 -1.414,3.326 -2.828,3.326c-0.778,0 -1.428,-0.332 -1.746,-0.829l-0.026,0l0,3.211l-1.567,0l0,-6.664Z" style="fill-rule:nonzero;"/><path d="M212.468,39.96c0.356,0.217 1.031,0.447 1.592,0.447c0.688,0 0.994,-0.281 0.994,-0.689c0,-0.42 -0.255,-0.636 -1.02,-0.904c-1.21,-0.421 -1.719,-1.083 -1.707,-1.81c0,-1.095 0.905,-1.949 2.345,-1.949c0.688,0 1.286,0.179 1.644,0.369l-0.306,1.109c-0.268,-0.153 -0.765,-0.357 -1.313,-0.357c-0.56,0 -0.866,0.268 -0.866,0.65c0,0.395 0.293,0.587 1.083,0.867c1.121,0.407 1.644,0.98 1.656,1.898c0,1.121 -0.879,1.95 -2.523,1.95c-0.751,0 -1.427,-0.192 -1.886,-0.447l0.307,-1.134Z" style="fill-rule:nonzero;"/><path d="M219.423,37.921l0.025,0c0.154,-0.241 0.331,-0.508 0.497,-0.725l1.504,-2.001l1.886,0l-2.294,2.536l2.625,3.669l-1.924,0l-1.784,-2.739l-0.535,0.624l0,2.115l-1.567,0l0,-9.046l1.567,0l0,5.567Z" style="fill-rule:nonzero;"/><path d="M228.863,32.507l-1.567,1.885l-1.083,0l1.108,-1.885l1.542,0Zm-3.44,2.688l1.122,3.326c0.127,0.382 0.255,0.854 0.344,1.21l0.038,0c0.101,-0.356 0.217,-0.815 0.331,-1.223l0.969,-3.313l1.681,0l-1.554,4.23c-0.854,2.32 -1.427,3.351 -2.166,3.989c-0.612,0.547 -1.248,0.751 -1.644,0.802l-0.356,-1.325c0.267,-0.063 0.598,-0.204 0.917,-0.433c0.293,-0.192 0.637,-0.561 0.853,-0.981c0.065,-0.115 0.103,-0.204 0.103,-0.28c0,-0.065 -0.013,-0.154 -0.09,-0.307l-2.268,-5.695l1.72,0Z" style="fill-rule:nonzero;"/><path d="M233.628,41.4l0,-5.032l-0.842,0l0,-1.173l0.842,0l0,-0.268c0,-0.802 0.216,-1.604 0.751,-2.114c0.459,-0.434 1.083,-0.6 1.618,-0.6c0.421,0 0.752,0.065 1.007,0.154l-0.114,1.21c-0.166,-0.064 -0.383,-0.115 -0.663,-0.115c-0.778,0 -1.045,0.65 -1.045,1.414l0,0.319l1.363,0l0,1.173l-1.351,0l0,5.032l-1.566,0Z" style="fill-rule:nonzero;"/><path d="M238.596,38.304c0,1.197 0.587,2.103 1.542,2.103c0.891,0 1.516,-0.88 1.516,-2.128c0,-0.969 -0.433,-2.077 -1.503,-2.077c-1.109,0 -1.555,1.07 -1.555,2.102Zm4.677,-0.063c0,2.28 -1.606,3.3 -3.186,3.3c-1.759,0 -3.109,-1.211 -3.109,-3.199c0,-2.038 1.338,-3.287 3.211,-3.287c1.847,0 3.084,1.3 3.084,3.186Z" style="fill-rule:nonzero;"/><path d="M244.558,37.042c0,-0.712 -0.013,-1.312 -0.051,-1.847l1.376,0l0.077,0.93l0.038,0c0.268,-0.484 0.943,-1.07 1.975,-1.07c1.083,0 2.204,0.7 2.204,2.663l0,3.682l-1.567,0l0,-3.504c0,-0.892 -0.332,-1.566 -1.185,-1.566c-0.624,0 -1.058,0.445 -1.224,0.917c-0.05,0.139 -0.063,0.331 -0.063,0.509l0,3.644l-1.58,0l0,-4.358Z" style="fill-rule:nonzero;"/><path d="M255.999,37.782c0,-0.128 -0.013,-0.281 -0.039,-0.408c-0.14,-0.612 -0.637,-1.109 -1.349,-1.109c-1.007,0 -1.568,0.893 -1.568,2.052c0,1.134 0.561,1.962 1.554,1.962c0.638,0 1.198,-0.433 1.35,-1.109c0.039,-0.139 0.052,-0.293 0.052,-0.459l0,-0.929Zm1.567,-5.428l0,7.301c0,0.637 0.025,1.325 0.051,1.745l-1.402,0l-0.063,-0.981l-0.026,0c-0.369,0.688 -1.121,1.122 -2.025,1.122c-1.479,0 -2.651,-1.262 -2.651,-3.173c-0.012,-2.077 1.287,-3.313 2.778,-3.313c0.853,0 1.466,0.357 1.746,0.816l0.025,0l0,-3.517l1.567,0Z" style="fill-rule:nonzero;"/><path d="M263.451,38.801c0,0.153 0.013,0.293 0.051,0.433c0.152,0.638 0.713,1.096 1.376,1.096c0.994,0 1.58,-0.829 1.58,-2.051c0,-1.096 -0.535,-1.988 -1.542,-1.988c-0.649,0 -1.249,0.471 -1.401,1.16c-0.038,0.127 -0.064,0.267 -0.064,0.394l0,0.956Zm-1.567,-1.542c0,-0.815 -0.025,-1.477 -0.051,-2.064l1.376,0l0.076,0.956l0.026,0c0.459,-0.701 1.184,-1.096 2.128,-1.096c1.426,0 2.612,1.223 2.612,3.16c0,2.243 -1.415,3.326 -2.829,3.326c-0.778,0 -1.427,-0.332 -1.745,-0.829l-0.026,0l0,3.211l-1.567,0l0,-6.664Z" style="fill-rule:nonzero;"/><path d="M269.337,37.196c0,-0.841 -0.013,-1.441 -0.052,-2.001l1.364,0l0.051,1.185l0.051,0c0.306,-0.879 1.032,-1.325 1.694,-1.325c0.154,0 0.243,0.013 0.37,0.038l0,1.478c-0.127,-0.026 -0.268,-0.051 -0.458,-0.051c-0.752,0 -1.262,0.484 -1.402,1.186c-0.026,0.139 -0.052,0.305 -0.052,0.483l0,3.211l-1.566,0l0,-4.204Z" style="fill-rule:nonzero;"/><path d="M274.981,38.304c0,1.197 0.586,2.103 1.541,2.103c0.892,0 1.516,-0.88 1.516,-2.128c0,-0.969 -0.433,-2.077 -1.504,-2.077c-1.108,0 -1.553,1.07 -1.553,2.102Zm4.675,-0.063c0,2.28 -1.605,3.3 -3.185,3.3c-1.758,0 -3.109,-1.211 -3.109,-3.199c0,-2.038 1.338,-3.287 3.21,-3.287c1.848,0 3.084,1.3 3.084,3.186Z" style="fill-rule:nonzero;"/><path d="M97.735,53.082c0,-0.841 -0.013,-1.44 -0.051,-2l1.364,0l0.05,1.184l0.052,0c0.305,-0.879 1.032,-1.325 1.694,-1.325c0.153,0 0.243,0.013 0.37,0.039l0,1.478c-0.127,-0.026 -0.268,-0.051 -0.459,-0.051c-0.751,0 -1.262,0.484 -1.402,1.184c-0.025,0.141 -0.051,0.306 -0.051,0.485l0,3.211l-1.567,0l0,-4.205Z" style="fill-rule:nonzero;"/><path d="M105.991,53.528c0.013,-0.573 -0.241,-1.517 -1.286,-1.517c-0.969,0 -1.376,0.88 -1.44,1.517l2.726,0Zm-2.726,1.096c0.038,1.121 0.917,1.605 1.911,1.605c0.726,0 1.249,-0.103 1.72,-0.28l0.23,1.083c-0.536,0.217 -1.275,0.394 -2.166,0.394c-2.014,0 -3.199,-1.248 -3.199,-3.146c0,-1.721 1.045,-3.339 3.033,-3.339c2.025,0 2.675,1.657 2.675,3.02c0,0.293 -0.025,0.522 -0.05,0.663l-4.154,0Z" style="fill-rule:nonzero;"/><path d="M112.781,53.566c0,-0.14 -0.012,-0.293 -0.05,-0.42c-0.166,-0.574 -0.612,-1.007 -1.275,-1.007c-0.879,0 -1.529,0.765 -1.529,2.026c0,1.057 0.536,1.911 1.517,1.911c0.585,0 1.095,-0.382 1.274,-0.943c0.038,-0.166 0.063,-0.383 0.063,-0.56l0,-1.007Zm1.568,2.815c0,1.3 -0.268,2.231 -0.918,2.817c-0.65,0.573 -1.542,0.752 -2.395,0.752c-0.79,0 -1.631,-0.166 -2.166,-0.497l0.344,-1.186c0.395,0.23 1.058,0.472 1.809,0.472c1.02,0 1.784,-0.535 1.784,-1.873l0,-0.535l-0.026,0c-0.357,0.547 -0.993,0.918 -1.809,0.918c-1.542,0 -2.637,-1.275 -2.637,-3.034c0,-2.038 1.325,-3.274 2.816,-3.274c0.942,0 1.503,0.459 1.796,0.969l0.025,0l0.064,-0.828l1.364,0c-0.026,0.419 -0.051,0.929 -0.051,1.783l0,3.516Z" style="fill-rule:nonzero;"/><path d="M115.979,57.287l0,-6.205l1.58,0l0,6.205l-1.58,0Zm1.669,-7.938c0,0.471 -0.344,0.841 -0.892,0.841c-0.522,0 -0.866,-0.37 -0.866,-0.841c0,-0.484 0.356,-0.854 0.879,-0.854c0.535,0 0.866,0.37 0.879,0.854Z" style="fill-rule:nonzero;"/><path d="M120.463,54.19c0,1.198 0.586,2.102 1.542,2.102c0.892,0 1.516,-0.878 1.516,-2.127c0,-0.968 -0.433,-2.077 -1.503,-2.077c-1.109,0 -1.555,1.071 -1.555,2.102Zm4.676,-0.064c0,2.282 -1.605,3.3 -3.185,3.3c-1.759,0 -3.109,-1.21 -3.109,-3.197c0,-2.039 1.338,-3.288 3.211,-3.288c1.847,0 3.083,1.3 3.083,3.185Z" style="fill-rule:nonzero;"/><path d="M126.425,52.929c0,-0.714 -0.013,-1.312 -0.051,-1.847l1.376,0l0.076,0.929l0.039,0c0.267,-0.483 0.943,-1.07 1.975,-1.07c1.083,0 2.204,0.701 2.204,2.663l0,3.683l-1.567,0l0,-3.504c0,-0.892 -0.331,-1.568 -1.185,-1.568c-0.624,0 -1.057,0.447 -1.223,0.917c-0.051,0.141 -0.064,0.332 -0.064,0.51l0,3.645l-1.58,0l0,-4.358Z" style="fill-rule:nonzero;"/><path d="M137.968,48.393l-1.567,1.886l-1.083,0l1.108,-1.886l1.542,0Zm-0.969,5.861c-1.108,-0.025 -2.166,0.216 -2.166,1.16c0,0.611 0.395,0.891 0.892,0.891c0.625,0 1.083,-0.407 1.223,-0.853c0.038,-0.115 0.051,-0.243 0.051,-0.344l0,-0.854Zm1.529,1.541c0,0.561 0.026,1.109 0.089,1.492l-1.414,0l-0.102,-0.689l-0.038,0c-0.382,0.485 -1.032,0.828 -1.835,0.828c-1.248,0 -1.949,-0.904 -1.949,-1.847c0,-1.567 1.389,-2.357 3.682,-2.344l0,-0.103c0,-0.407 -0.165,-1.083 -1.261,-1.083c-0.612,0 -1.249,0.192 -1.669,0.459l-0.306,-1.019c0.459,-0.281 1.261,-0.548 2.242,-0.548c1.988,0 2.561,1.262 2.561,2.612l0,2.242Z" style="fill-rule:nonzero;"/><rect x="140.184" y="48.24" width="1.58" height="9.047" style="fill-rule:nonzero;"/><path d="M143.457,52.929c0,-0.714 -0.013,-1.312 -0.051,-1.847l1.376,0l0.078,0.929l0.038,0c0.267,-0.483 0.942,-1.07 1.974,-1.07c1.083,0 2.204,0.701 2.204,2.663l0,3.683l-1.567,0l0,-3.504c0,-0.892 -0.331,-1.568 -1.185,-1.568c-0.624,0 -1.057,0.447 -1.223,0.917c-0.051,0.141 -0.064,0.332 -0.064,0.51l0,3.645l-1.58,0l0,-4.358Z" style="fill-rule:nonzero;"/><path d="M153.445,48.393l-1.566,1.886l-1.083,0l1.108,-1.886l1.541,0Zm-2.701,8.894l0,-6.205l1.58,0l0,6.205l-1.58,0Z" style="fill-rule:nonzero;"/><path d="M156.643,53.082c0,-0.841 -0.013,-1.44 -0.051,-2l1.363,0l0.051,1.184l0.051,0c0.305,-0.879 1.032,-1.325 1.694,-1.325c0.153,0 0.242,0.013 0.37,0.039l0,1.478c-0.128,-0.026 -0.267,-0.051 -0.459,-0.051c-0.752,0 -1.261,0.484 -1.401,1.184c-0.025,0.141 -0.051,0.306 -0.051,0.485l0,3.211l-1.567,0l0,-4.205Z" style="fill-rule:nonzero;"/><path d="M162.286,54.19c0,1.198 0.587,2.102 1.542,2.102c0.892,0 1.517,-0.878 1.517,-2.127c0,-0.968 -0.434,-2.077 -1.504,-2.077c-1.108,0 -1.555,1.071 -1.555,2.102Zm4.677,-0.064c0,2.282 -1.605,3.3 -3.186,3.3c-1.758,0 -3.109,-1.21 -3.109,-3.197c0,-2.039 1.338,-3.288 3.211,-3.288c1.848,0 3.084,1.3 3.084,3.185Z" style="fill-rule:nonzero;"/><path d="M167.561,56.381l2.332,-2.981c0.318,-0.382 0.586,-0.688 0.917,-1.044l0,-0.025l-3.02,0l0,-1.249l4.931,0l0,0.955l-2.28,2.918c-0.306,0.37 -0.599,0.726 -0.918,1.057l0,0.026l3.274,0l0,1.249l-5.236,0l0,-0.906Z" style="fill-rule:nonzero;"/><path d="M175.077,51.082l1.007,3.147c0.178,0.548 0.306,1.044 0.42,1.554l0.038,0c0.115,-0.51 0.255,-0.993 0.421,-1.554l0.981,-3.147l1.657,0l-2.37,6.205l-1.542,0l-2.306,-6.205l1.694,0Z" style="fill-rule:nonzero;"/><path d="M181.612,54.19c0,1.198 0.587,2.102 1.542,2.102c0.892,0 1.517,-0.878 1.517,-2.127c0,-0.968 -0.434,-2.077 -1.504,-2.077c-1.108,0 -1.555,1.071 -1.555,2.102Zm4.677,-0.064c0,2.282 -1.605,3.3 -3.185,3.3c-1.759,0 -3.11,-1.21 -3.11,-3.197c0,-2.039 1.338,-3.288 3.211,-3.288c1.848,0 3.084,1.3 3.084,3.185Z" style="fill-rule:nonzero;"/><path d="M189.435,49.349c0,0.458 -0.331,0.841 -0.892,0.841c-0.522,0 -0.853,-0.383 -0.853,-0.841c0,-0.484 0.343,-0.854 0.879,-0.854c0.535,0 0.866,0.37 0.866,0.854Zm-3.237,9.428c0.51,-0.038 0.918,-0.165 1.173,-0.445c0.293,-0.307 0.407,-0.803 0.407,-2.154l0,-5.096l1.568,0l0,5.542c0,1.287 -0.242,2.089 -0.803,2.65c-0.548,0.51 -1.414,0.726 -2.191,0.726l-0.154,-1.223Z" style="fill-rule:nonzero;"/><path d="M191.639,57.426c-0.561,0 -0.955,-0.432 -0.955,-1.006c0,-0.587 0.407,-1.006 0.968,-1.006c0.573,0 0.968,0.407 0.968,1.006c0,0.574 -0.383,1.006 -0.968,1.006l-0.013,0Z" style="fill-rule:nonzero;"/><rect x="0" y="0.101" width="86.911" height="57.941" style="fill:#074ea2;fill-rule:nonzero;"/><path d="M21.346,27.905l2.671,-0.126l0.856,-2.531l0.945,2.5l2.673,0.033l-2.086,1.671l0.795,2.552l-2.234,-1.468l-2.182,1.545l0.706,-2.578l-2.144,-1.598Z" style="fill:#fc0;fill-rule:nonzero;"/><path d="M46.595,9.029l-1.965,1.813l0.972,2.49l-2.332,-1.308l-2.068,1.693l0.524,-2.621l-2.25,-1.444l2.655,-0.312l0.678,-2.586l1.117,2.429l2.669,-0.154Z" style="fill:#fc0;fill-rule:nonzero;"/><path d="M33.439,9.153l0.901,2.516l2.672,0.08l-2.115,1.634l0.75,2.566l-2.208,-1.507l-2.208,1.507l0.751,-2.566l-2.116,-1.634l2.672,-0.08l0.901,-2.516Z" style="fill:#fc0;fill-rule:nonzero;"/><path d="M26.535,16.305l1.032,2.466l2.672,-0.06l-2.027,1.743l0.884,2.523l-2.284,-1.389l-2.127,1.62l0.616,-2.601l-2.198,-1.522l2.664,-0.219l0.768,-2.561Z" style="fill:#fc0;fill-rule:nonzero;"/><path d="M23.047,37.816l2.672,-0.079l0.901,-2.516l0.901,2.516l2.672,0.08l-2.115,1.634l0.75,2.566l-2.208,-1.507l-2.208,1.507l0.75,-2.566l-2.115,-1.635Z" style="fill:#fc0;fill-rule:nonzero;"/><path d="M30.015,44.766l2.668,-0.172l0.812,-2.547l0.989,2.484l2.673,-0.014l-2.057,1.707l0.839,2.538l-2.259,-1.429l-2.155,1.583l0.661,-2.59l-2.171,-1.56Z" style="fill:#fc0;fill-rule:nonzero;"/><path d="M40.669,51.389l0.75,-2.566l-2.115,-1.634l2.672,-0.079l0.901,-2.517l0.901,2.517l2.672,0.079l-2.115,1.634l0.75,2.566l-2.208,-1.506l-2.208,1.506Z" style="fill:#fc0;fill-rule:nonzero;"/><path d="M50.439,49.017l0.706,-2.579l-2.144,-1.597l2.671,-0.126l0.857,-2.532l0.944,2.501l2.673,0.032l-2.086,1.671l0.795,2.553l-2.234,-1.468l-2.182,1.545Z" style="fill:#fc0;fill-rule:nonzero;"/><path d="M57.273,42.033l0.75,-2.566l-2.115,-1.634l2.672,-0.079l0.901,-2.517l0.901,2.517l2.672,0.079l-2.115,1.634l0.751,2.566l-2.209,-1.506l-2.208,1.506Z" style="fill:#fc0;fill-rule:nonzero;"/><path d="M64.273,32.537l-2.234,-1.468l-2.182,1.545l0.706,-2.579l-2.144,-1.597l2.671,-0.126l0.856,-2.532l0.945,2.501l2.673,0.032l-2.086,1.671l0.795,2.553Z" style="fill:#fc0;fill-rule:nonzero;"/><path d="M61.609,23.048l-2.182,-1.545l-2.234,1.468l0.795,-2.553l-2.086,-1.671l2.673,-0.033l0.945,-2.5l0.857,2.532l2.67,0.126l-2.144,1.597l0.706,2.579Z" style="fill:#fc0;fill-rule:nonzero;"/><path d="M55.947,11.938l-2.115,1.635l0.75,2.565l-2.208,-1.506l-2.208,1.506l0.75,-2.566l-2.115,-1.634l2.672,-0.079l0.901,-2.517l0.901,2.517l2.672,0.079Z" style="fill:#fc0;fill-rule:nonzero;"/></g></svg>